# Blender v2.81 (sub 16) OBJ File: ''
# www.blender.org
mtllib Fence.mtl
o Cube_Cube.001
v 0.062500 0.000000 -0.562500
v 0.062500 1.100000 -0.562500
v 0.062500 0.000000 -0.937500
v 0.062500 1.100000 -0.937500
v 0.437500 0.000000 -0.562500
v 0.437500 1.100000 -0.562500
v 0.437500 0.000000 -0.937500
v 0.437500 1.100000 -0.937500
v 0.236985 1.419347 -0.736985
v 0.236985 1.419347 -0.763015
v 0.263015 1.419347 -0.763015
v 0.263015 1.419347 -0.736985
vt 0.375000 0.000000
vt 0.625000 0.000000
vt 0.625000 0.250000
vt 0.375000 0.250000
vt 0.625000 0.500000
vt 0.375000 0.500000
vt 0.625000 0.750000
vt 0.375000 0.750000
vt 0.625000 1.000000
vt 0.375000 1.000000
vt 0.125000 0.500000
vt 0.125000 0.750000
vt 0.625000 0.250000
vt 0.625000 0.500000
vt 0.875000 0.500000
vt 0.875000 0.750000
vt 0.625000 0.750000
vt 0.625000 0.000000
vt 0.625000 1.000000
vn -1.0000 0.0000 0.0000
vn 0.0000 0.0000 -1.0000
vn 1.0000 0.0000 0.0000
vn 0.0000 0.0000 1.0000
vn 0.0000 -1.0000 0.0000
vn 0.0000 0.4795 -0.8776
vn 0.0000 1.0000 0.0000
vn 0.8776 0.4795 0.0000
vn -0.8776 0.4795 0.0000
vn 0.0000 0.4795 0.8776
usemtl None
s off
f 1/1/1 2/2/1 4/3/1 3/4/1
f 3/4/2 4/3/2 8/5/2 7/6/2
f 7/6/3 8/5/3 6/7/3 5/8/3
f 5/8/4 6/7/4 2/9/4 1/10/4
f 3/11/5 7/6/5 5/8/5 1/12/5
f 8/5/6 4/3/6 10/13/6 11/14/6
f 11/14/7 10/15/7 9/16/7 12/17/7
f 6/7/8 8/5/8 11/14/8 12/17/8
f 4/3/9 2/2/9 9/18/9 10/13/9
f 2/9/10 6/7/10 12/17/10 9/19/10
o Cube.001_Cube.002
v 0.062500 0.000000 -2.062500
v 0.062500 1.100000 -2.062500
v 0.062500 0.000000 -2.437500
v 0.062500 1.100000 -2.437500
v 0.437500 0.000000 -2.062500
v 0.437500 1.100000 -2.062500
v 0.437500 0.000000 -2.437500
v 0.437500 1.100000 -2.437500
v 0.236985 1.419347 -2.236984
v 0.236985 1.419347 -2.263016
v 0.263015 1.419347 -2.263016
v 0.263015 1.419347 -2.236984
vt 0.375000 0.000000
vt 0.625000 0.000000
vt 0.625000 0.250000
vt 0.375000 0.250000
vt 0.625000 0.500000
vt 0.375000 0.500000
vt 0.625000 0.750000
vt 0.375000 0.750000
vt 0.625000 1.000000
vt 0.375000 1.000000
vt 0.125000 0.500000
vt 0.125000 0.750000
vt 0.625000 0.250000
vt 0.625000 0.500000
vt 0.875000 0.500000
vt 0.875000 0.750000
vt 0.625000 0.750000
vt 0.625000 0.000000
vt 0.625000 1.000000
vn -1.0000 0.0000 0.0000
vn 0.0000 0.0000 -1.0000
vn 1.0000 0.0000 0.0000
vn 0.0000 0.0000 1.0000
vn 0.0000 -1.0000 0.0000
vn 0.0000 0.4795 -0.8776
vn 0.0000 1.0000 0.0000
vn 0.8776 0.4795 0.0000
vn -0.8776 0.4795 0.0000
vn 0.0000 0.4795 0.8776
usemtl None
s off
f 13/20/11 14/21/11 16/22/11 15/23/11
f 15/23/12 16/22/12 20/24/12 19/25/12
f 19/25/13 20/24/13 18/26/13 17/27/13
f 17/27/14 18/26/14 14/28/14 13/29/14
f 15/30/15 19/25/15 17/27/15 13/31/15
f 20/24/16 16/22/16 22/32/16 23/33/16
f 23/33/17 22/34/17 21/35/17 24/36/17
f 18/26/18 20/24/18 23/33/18 24/36/18
f 16/22/19 14/21/19 21/37/19 22/32/19
f 14/28/20 18/26/20 24/36/20 21/38/20
o Cube.002_Cube.003
v 0.150000 0.800000 0.000000
v 0.150000 1.000000 0.000000
v 0.150000 0.800000 -3.000000
v 0.150000 1.000000 -3.000000
v 0.350000 0.800000 0.000000
v 0.350000 1.000000 0.000000
v 0.350000 0.800000 -3.000000
v 0.350000 1.000000 -3.000000
vt 0.375000 0.000000
vt 0.625000 0.000000
vt 0.625000 0.250000
vt 0.375000 0.250000
vt 0.625000 0.500000
vt 0.375000 0.500000
vt 0.625000 0.750000
vt 0.375000 0.750000
vt 0.625000 1.000000
vt 0.375000 1.000000
vt 0.125000 0.500000
vt 0.125000 0.750000
vt 0.875000 0.500000
vt 0.875000 0.750000
vn -1.0000 0.0000 0.0000
vn 0.0000 0.0000 -1.0000
vn 1.0000 0.0000 0.0000
vn 0.0000 0.0000 1.0000
vn 0.0000 -1.0000 0.0000
vn 0.0000 1.0000 0.0000
usemtl None
s off
f 25/39/21 26/40/21 28/41/21 27/42/21
f 27/42/22 28/41/22 32/43/22 31/44/22
f 31/44/23 32/43/23 30/45/23 29/46/23
f 29/46/24 30/45/24 26/47/24 25/48/24
f 27/49/25 31/44/25 29/46/25 25/50/25
f 32/43/26 28/51/26 26/52/26 30/45/26
o Cube.003_Cube.004
v 0.150000 0.400000 0.000000
v 0.150000 0.600000 0.000000
v 0.150000 0.400000 -3.000000
v 0.150000 0.600000 -3.000000
v 0.350000 0.400000 0.000000
v 0.350000 0.600000 0.000000
v 0.350000 0.400000 -3.000000
v 0.350000 0.600000 -3.000000
vt 0.375000 0.000000
vt 0.625000 0.000000
vt 0.625000 0.250000
vt 0.375000 0.250000
vt 0.625000 0.500000
vt 0.375000 0.500000
vt 0.625000 0.750000
vt 0.375000 0.750000
vt 0.625000 1.000000
vt 0.375000 1.000000
vt 0.125000 0.500000
vt 0.125000 0.750000
vt 0.875000 0.500000
vt 0.875000 0.750000
vn -1.0000 0.0000 0.0000
vn 0.0000 0.0000 -1.0000
vn 1.0000 0.0000 0.0000
vn 0.0000 0.0000 1.0000
vn 0.0000 -1.0000 0.0000
vn 0.0000 1.0000 0.0000
usemtl None
s off
f 33/53/27 34/54/27 36/55/27 35/56/27
f 35/56/28 36/55/28 40/57/28 39/58/28
f 39/58/29 40/57/29 38/59/29 37/60/29
f 37/60/30 38/59/30 34/61/30 33/62/30
f 35/63/31 39/58/31 37/60/31 33/64/31
f 40/57/32 36/65/32 34/66/32 38/59/32
