# Blender v2.81 (sub 16) OBJ File: ''
# www.blender.org
mtllib Wall Cross 2Side.mtl
o Wood_Wall_Cross_01
v 0.500000 2.200000 0.000000
v 0.500000 2.200000 -0.500000
v 0.400000 2.200000 -0.500000
v 0.100000 2.200000 -0.500000
v -0.000000 2.200000 -0.500000
v 0.000000 2.200000 0.000000
v 0.500000 0.000000 0.000000
v 0.500000 0.000000 -0.500000
v 0.500000 0.275000 -0.500000
v -0.000000 0.000000 -0.500000
v 0.100000 0.000000 -0.500000
v 0.400000 0.000000 -0.500000
v 0.000000 0.000000 0.000000
v 0.100000 0.000000 -2.500000
v 0.100000 2.200001 -2.500000
v 0.400000 0.000000 -2.500000
v 0.400000 0.000000 -0.750000
v 0.500000 0.000000 -2.500000
v -0.000000 0.000000 -2.500000
v 0.000000 0.000000 -3.000000
v 0.500000 0.000000 -3.000000
v 0.500000 1.925000 -2.500000
v 0.400000 1.925000 -2.500000
v 0.500000 2.200001 -3.000000
v 0.500000 2.200001 -2.500000
v 0.000000 2.200001 -3.000000
v -0.000000 2.200001 -2.500000
v 0.400000 2.200001 -2.500000
v 0.400000 2.200001 -2.250000
v 0.400000 0.275000 -0.500000
v 0.500000 0.000000 -0.750000
v 0.500000 2.200001 -2.250000
v 0.002127 0.000000 -2.500000
v 0.002127 0.275000 -2.500000
v 0.102127 0.000000 -2.500000
v 0.102127 0.000000 -2.250000
v 0.002127 1.925000 -0.500000
v 0.102127 1.925000 -0.500000
v 0.002127 2.200000 -0.500000
v 0.102127 2.200000 -0.500000
v 0.102127 2.200001 -0.750000
v 0.102127 0.275000 -2.500000
v 0.002127 0.000000 -2.250000
v 0.002127 2.200001 -0.750000
vt 0.227273 0.000000
vt 0.227273 0.227273
vt 0.181818 0.227273
vt 0.045454 0.227273
vt -0.000000 0.227273
vt 0.000000 0.000000
vt -0.000000 0.000000
vt 0.227273 0.000000
vt 0.227273 0.125000
vt 0.227273 1.000000
vt -0.000000 1.000000
vt 0.000000 0.227273
vt -0.045454 0.227273
vt -0.181818 0.227273
vt -0.227273 0.227273
vt -0.227273 0.000000
vt 0.000000 0.000000
vt 0.000000 0.000000
vt 0.000000 1.000000
vt -0.045454 1.000000
vt -0.045454 0.000000
vt 0.000000 1.000000
vt -0.227273 1.000000
vt -0.227273 0.000000
vt 0.227273 0.000000
vt 0.227273 1.000000
vt -0.227273 1.136360
vt -0.181818 1.136360
vt -0.045454 1.136360
vt 0.000000 1.136360
vt -0.000000 1.363640
vt -0.227273 1.363640
vt 0.227273 0.000000
vt 0.227273 0.875000
vt 0.181818 0.875000
vt 0.181818 0.000000
vt 1.363640 1.000000
vt 1.136360 1.000000
vt 1.136360 0.875000
vt 1.136360 -0.000000
vt 1.363640 -0.000000
vt 0.000000 1.363640
vt -0.000000 1.136360
vt 0.045454 1.136360
vt 0.181818 1.136360
vt 0.227273 1.136360
vt 0.227273 1.363640
vt -1.363640 0.000000
vt -1.136360 0.000000
vt -1.136360 1.000000
vt -1.363640 1.000000
vt -0.000000 1.000000
vt -0.000000 0.000000
vt 0.045454 0.000000
vt 0.045454 1.000000
vt 0.340909 -0.000000
vt 1.136360 0.875000
vt 1.136360 1.000000
vt 1.022730 1.000000
vt 0.227273 0.125000
vt 0.227273 -0.000000
vt -0.181818 0.229320
vt -0.181818 1.411850
vt -0.227273 1.411850
vt -0.227273 0.229320
vt 0.181818 1.000000
vt 0.227273 1.000000
vt 0.340909 -0.000000
vt 1.022730 1.000000
vt 0.181818 1.022730
vt 0.227273 1.022730
vt -0.227273 1.000000
vt -0.227273 0.125000
vt -0.181818 0.125000
vt -0.181818 1.000000
vt -0.181818 0.000000
vt -0.227273 0.000000
vt 0.181818 1.427900
vt 0.181818 0.245373
vt 0.227273 0.245373
vt 0.227273 1.427900
vt -0.181818 0.340909
vt -0.227273 0.340909
vt -0.227273 0.000000
vt -0.000000 0.000000
vt -0.000000 1.000000
vt -0.227273 1.000000
vt -0.181818 0.229320
vt -0.181818 1.411850
vt -0.227273 1.411850
vt -0.227273 0.229320
vt 0.340909 -0.000000
vt 1.136360 0.875000
vt 1.136360 1.000000
vt 1.022730 1.000000
vt 0.227273 0.125000
vt 0.227273 -0.000000
vt 0.181818 1.136360
vt 0.181818 1.022730
vt 0.227273 1.022730
vt 0.227273 1.136360
vt 0.181818 1.427900
vt 0.181818 0.245373
vt 0.227273 0.245373
vt 0.227273 1.427900
vt -0.181818 0.227273
vt -0.181818 0.340909
vt -0.227273 0.340909
vt -0.227273 0.227273
vt -1.136360 0.000000
vt -0.227273 0.000000
vt -0.227273 1.000000
vt -1.136360 1.000000
vt 1.136360 0.000000
vt 0.227273 1.000000
vt 3.937010 -0.000000
vt 15.748000 -0.000000
vt 15.748000 75.787399
vt 15.748000 86.614197
vt 3.937010 86.614197
vt -15.748000 -0.000000
vt -3.937010 -0.000000
vt -3.937010 86.614197
vt -15.748000 86.614197
vt -15.748000 10.826800
vn 0.0000 1.0000 0.0000
vn 1.0000 0.0000 0.0000
vn 0.0000 -1.0000 -0.0000
vn 0.0000 0.0000 -1.0000
vn -1.0000 -0.0000 0.0000
vn 0.0000 -0.0000 1.0000
vn 0.0000 -0.6727 -0.7399
vn 0.0000 0.6727 0.7399
vn 0.0000 -0.6727 0.7399
vn 0.0000 0.6727 -0.7399
g Wood_Wall_Cross_01_Wood_Wall_Cross_01_Wood
usemtl Wood
s 1
f 1/1/1 2/2/1 3/3/1 4/4/1 5/5/1 6/6/1
f 7/7/2 8/8/2 9/9/2 2/10/2 1/11/2
f 10/12/3 11/13/3 12/14/3 8/15/3 7/16/3 13/17/3
f 10/18/4 5/19/4 4/20/4 11/21/4
f 6/22/5 5/23/5 10/24/5 13/17/5
f 13/17/6 7/25/6 1/26/6 6/22/6
f 18/27/3 16/28/3 14/29/3 19/30/3 20/31/3 21/32/3
f 18/33/6 22/34/6 23/35/6 16/36/6
f 24/37/2 25/38/2 22/39/2 18/40/2 21/41/2
f 26/42/1 27/43/1 15/44/1 28/45/1 25/46/1 24/47/1
f 20/48/5 19/49/5 27/50/5 26/51/5
f 27/52/6 19/53/6 14/54/6 15/55/6
f 17/56/2 23/57/2 28/58/2 29/59/2 30/60/2 12/61/2
f 17/62/7 23/63/7 22/64/7 31/65/7
f 28/66/6 23/35/6 22/34/6 25/67/6
f 31/68/2 22/39/2 25/38/2 32/69/2 9/9/2 8/8/2
f 28/45/1 29/70/1 32/71/1 25/46/1
f 2/72/4 9/73/4 30/74/4 3/75/4
f 12/76/4 30/74/4 9/73/4 8/77/4
f 29/78/8 30/79/8 9/80/8 32/81/8
f 12/14/3 17/82/3 31/83/3 8/15/3
f 21/84/4 20/85/4 26/86/4 24/87/4
f 36/88/9 38/89/9 37/90/9 43/91/9
f 43/92/5 37/93/5 39/94/5 44/95/5 34/96/5 33/97/5
f 40/98/1 41/99/1 44/100/1 39/101/1
f 41/102/10 42/103/10 34/104/10 44/105/10
f 35/106/3 36/107/3 43/108/3 33/109/3
g Wood_Wall_Cross_01_Wood_Wall_Cross_01_Dark_Stone
usemtl Dark_Stone
f 14/110/5 11/111/5 4/112/5 15/113/5
f 11/13/3 14/29/3 16/28/3 17/82/3 12/14/3
f 17/56/2 16/114/2 23/57/2
f 28/45/1 15/44/1 4/4/1 3/3/1 29/70/1
f 3/115/2 30/60/2 29/59/2
g Wood_Wall_Cross_01_Wood_Wall_Cross_01_Light_Stone
usemtl Light_Stone
f 14/116/6 16/117/6 23/118/6 28/119/6 15/120/6
f 12/121/4 11/122/4 4/123/4 3/124/4 30/125/4
