# Blender v2.81 (sub 16) OBJ File: ''
# www.blender.org
mtllib Wood_Window_Square_011.mtl
o Wood_Window_Square_01
v 0.400000 2.200000 -0.500000
v 0.100000 2.200000 -0.500000
v 0.100000 0.000000 -0.500000
v 0.400000 0.000000 -0.500000
v 0.100000 1.704680 -1.247660
v 0.100000 2.200001 -2.500000
v 0.400000 2.200001 -2.500000
v 0.000000 2.200001 -3.000000
v 0.000000 2.200001 -2.500000
v 0.500000 2.200001 -2.500000
v 0.500000 2.200001 -3.000000
v 0.000000 0.000000 -3.000000
v 0.000000 0.000000 -2.500000
v 0.500000 0.000000 -2.500000
v 0.400000 0.000000 -2.500000
v 0.100000 0.000000 -2.500000
v 0.500000 0.000000 -3.000000
v 0.400000 1.704680 -1.752340
v 0.400000 1.704680 -1.247660
v 0.400000 0.747662 -1.247660
v 0.100000 0.747662 -1.247660
v 0.100000 1.704680 -1.752340
v 0.100000 0.747662 -1.752340
v 0.400000 0.747662 -1.752340
vt 0.000000 1.363640
vt 0.000000 1.136360
vt 0.045454 1.136360
vt 0.181818 1.136360
vt 0.227273 1.136360
vt 0.227273 1.363640
vt -1.363640 0.000000
vt -1.136360 0.000000
vt -1.136360 1.000000
vt -1.363640 1.000000
vt -0.227273 1.136360
vt -0.181818 1.136360
vt -0.045454 1.136360
vt 0.000000 1.136360
vt 0.000000 1.363640
vt -0.227273 1.363640
vt 0.227273 0.000000
vt 0.227273 1.000000
vt 0.181818 1.000000
vt 0.181818 0.000000
vt 1.363640 1.000000
vt 1.136360 1.000000
vt 1.136360 0.000000
vt 1.363640 0.000000
vt -0.227273 0.000000
vt 0.000000 0.000000
vt 0.000000 1.000000
vt -0.227273 1.000000
vt 0.000000 1.000000
vt 0.000000 0.000000
vt 0.045454 0.000000
vt 0.045454 1.000000
vt -0.227273 1.000000
vt -0.567119 0.774853
vt -0.227273 0.000000
vt -1.136360 1.000000
vt 0.045454 0.227273
vt 0.181818 0.227273
vt 1.136360 1.000000
vt 0.796517 0.774853
vt 1.136360 0.000000
vt 0.567119 0.774853
vt 0.227273 1.000000
vt 0.567119 0.339846
vt 0.227273 0.000000
vt -0.045454 0.227273
vt -0.181818 0.227273
vt -0.567119 0.339846
vt -1.136360 0.000000
vt -0.045454 0.774853
vt -0.181818 0.774853
vt -0.181818 0.339846
vt -0.045454 0.339846
vt -0.045454 0.567119
vt -0.045454 0.796517
vt -0.181818 0.796517
vt -0.181818 0.567119
vt -0.796517 0.774853
vt -0.796517 0.339846
vt 0.181818 0.567119
vt 0.181818 0.796517
vt 0.045454 0.796517
vt 0.045454 0.567119
vt 0.796517 0.339846
vt 0.181818 0.339846
vt 0.181818 0.774853
vt 0.045454 0.774853
vt 0.045454 0.339846
vn 0.0000 1.0000 -0.0000
vn -1.0000 0.0000 0.0000
vn 0.0000 -1.0000 -0.0000
vn 0.0000 -0.0000 1.0000
vn 1.0000 0.0000 0.0000
vn 0.0000 0.0000 -1.0000
usemtl Wood.001
s 1
f 8/1/1 9/2/1 6/3/1 7/4/1 10/5/1 11/6/1
f 12/7/2 13/8/2 9/9/2 8/10/2
f 14/11/3 15/12/3 16/13/3 13/14/3 12/15/3 17/16/3
f 14/17/4 10/18/4 7/19/4 15/20/4
f 11/21/5 10/22/5 14/23/5 17/24/5
f 17/25/6 12/26/6 8/27/6 11/28/6
f 9/29/4 13/30/4 16/31/4 6/32/4
usemtl Dark_Stone.001
f 2/33/2 5/34/2 3/35/2
f 5/34/2 2/33/2 6/36/2
f 7/4/1 6/3/1 2/37/1 1/38/1
f 7/39/5 18/40/5 15/41/5
f 7/39/5 19/42/5 18/40/5
f 1/43/5 19/42/5 7/39/5
f 19/42/5 1/43/5 20/44/5
f 4/45/5 20/44/5 1/43/5
f 20/44/5 4/45/5 15/41/5
f 3/46/3 16/13/3 15/12/3 4/47/3
f 3/35/2 21/48/2 16/49/2
f 21/48/2 3/35/2 5/34/2
f 5/50/6 19/51/6 20/52/6 21/53/6
f 5/54/3 22/55/3 18/56/3 19/57/3
f 5/34/2 6/36/2 22/58/2
f 22/58/2 6/36/2 23/59/2
f 16/49/2 23/59/2 6/36/2
f 16/49/2 21/48/2 23/59/2
f 20/60/1 24/61/1 23/62/1 21/63/1
f 20/44/5 15/41/5 24/64/5
f 24/64/5 15/41/5 18/40/5
f 24/65/4 18/66/4 22/67/4 23/68/4
